<?xml version="1.0" encoding="UTF-8" standalone="no"?>
<!-- Created with Inkscape (http://www.inkscape.org/) -->

<svg
   width="594.70099"
   height="339.51999"
   viewBox="0 0 157.34863 89.831895"
   version="1.1"
   id="svg5"
   xml:space="preserve"
   xmlns="http://www.w3.org/2000/svg"
   xmlns:svg="http://www.w3.org/2000/svg"><defs
     id="defs2" /><g
     id="layer1"><path
       style="fill:#000000;stroke-width:0.264583"
       d="M 1.2028958,82.867097 C 0.97651579,75.37076 0.97594579,14.17168 1.2021858,6.9073085 l 0.17438,-5.5993599 77.4146822,0.0666 77.414672,0.0666 V 44.96511 88.489067 l -77.414612,0.0666 -77.4146222,0.0666 z M 78.418428,71.69165 V 55.42342 l -1.39408,-0.20062 c -2.88148,-0.41469 -5.417161,-1.95431 -6.916491,-4.19958 -1.441151,-2.15814 -1.959729,-4.07399 -1.822093,-6.73159 0.128363,-2.47854 1.11252,-4.91595 2.6899,-6.66192 1.213509,-1.34321 3.680484,-2.65922 5.792464,-3.08999 l 1.6503,-0.33661 0.0682,-16.18255 0.0682,-16.1825515 H 40.188166 1.8215558 v 3.41547 3.415472 l 7.6067699,0.1096 c 7.5489903,0.10878 7.6304803,0.11598 10.7282603,0.94881 12.33167,3.3153095 21.656,10.5092295 26.26755,20.2659895 3.5556,7.52268 4.11403,18.0097 1.39599,26.21653 -3.62885,10.95696 -12.93309,19.47059 -25.41275,23.253337 -4.54904,1.37888 -7.64399,1.74979 -14.6005103,1.74979 H 1.8215558 v 3.44048 3.44047 l 38.2984302,-0.067 38.298442,-0.067 z m 77.332372,12.894797 0.074,-3.37344 h -6.12551 c -6.92999,0 -10.07035,-0.3546 -14.31956,-1.61695 C 122.888,75.88505 113.18602,67.1603 109.66836,56.47447 c -1.16992,-3.55398 -1.51064,-5.63635 -1.66672,-10.18646 -0.28163,-8.21069 1.31014,-14.35367 5.27904,-20.37292 5.13654,-7.7901 13.85086,-13.61029 24.40435,-16.2993695 2.75506,-0.70201 3.31296,-0.74931 10.45105,-0.88622 l 7.54062,-0.14462 0.074,-3.373432 0.074,-3.37344 H 117.45222 79.079738 V 18.0758 34.31359 l 1.26807,0.16821 c 1.49068,0.19775 4.64171,1.65611 5.67194,2.62509 4.09955,3.85582 4.18144,11.28884 0.16857,15.3017 -1.30768,1.30769 -3.91174,2.57034 -5.74998,2.78805 l -1.3586,0.16091 v 16.36821 16.368197 l 38.298422,-0.067 38.29844,-0.067 z M 14.939716,80.419767 c 9.04233,-0.80053 18.60435,-5.408547 24.88152,-11.990597 4.67773,-4.90494 7.5571,-10.54962 8.71776,-17.09021 0.56025,-3.15714 0.55001,-9.50545 -0.0207,-12.84119 -2.34484,-13.70508 -12.738,-24.03648 -28.42706,-28.25809 -3.01913,-0.8123895 -3.1483,-0.8236795 -10.6629203,-0.9319595 l -7.6067699,-0.1096 V 21.79315 34.38818 l 16.3380202,-0.004 c 17.35018,-0.004 17.30739,-0.007 19.82254,1.27603 1.53313,0.78215 3.0686,2.44642 4.14243,4.48993 1.64475,3.12996 1.70605,6.1174 0.18875,9.19947 -1.66527,3.38265 -4.40689,5.38991 -8.08849,5.92197 -1.06566,0.154 -8.29274,0.26868 -17.12357,0.27171 l -15.2796802,0.005 V 68.116 80.683697 l 5.0932299,-0.002 c 2.80127,-0.001 6.4124903,-0.11906 8.0249303,-0.26181 z M 155.74548,68.06454 l 0.0687,-12.487 -16.60518,-0.0967 c -18.45188,-0.10741 -17.87059,-0.0531 -20.5989,-1.92553 -1.64503,-1.12899 -2.82375,-2.55793 -3.76286,-4.56163 -0.62206,-1.32725 -0.71009,-1.84311 -0.71009,-4.16092 0,-2.32071 0.0876,-2.83286 0.71329,-4.16788 0.87861,-1.87484 3.11797,-4.28977 4.71013,-5.07943 2.41744,-1.19897 2.77476,-1.22202 19.84429,-1.28039 l 16.27187,-0.0556 0.0687,-12.52541 0.0688,-12.5253995 -7.74167,0.11573 c -7.65522,0.11443 -7.77565,0.12489 -10.78438,0.9363895 -8.52135,2.29834 -14.69083,5.87185 -20.14256,11.66705 -3.91423,4.16084 -6.65083,9.2551 -7.93378,14.76904 -0.77192,3.31755 -0.97731,10.40295 -0.40612,14.00933 1.13971,7.19583 4.11685,13.03135 9.29686,18.22288 4.99196,5.00305 11.5349,8.67763 18.84944,10.586057 3.40634,0.88873 6.17211,1.11759 13.03616,1.07867 l 5.68854,-0.0323 z M 29.924136,54.71674 c 0.0753,-0.22587 0.2471,-0.22425 0.67807,0.006 0.31748,0.16991 0.87734,0.23361 1.24413,0.14155 l 0.66688,-0.16738 v -9.89319 -9.89319 h -1.4552 c -0.80037,0 -1.45521,0.11906 -1.45521,0.26458 0,0.14552 -0.24516,0.26458 -0.54479,0.26458 -0.29963,0 -0.47119,-0.11906 -0.38125,-0.26458 0.10819,-0.17507 -4.40698,-0.26458 -13.34585,-0.26458 H 1.8215558 V 44.96469 55.01886 H 15.822426 c 10.26933,0 14.02774,-0.0806 14.10171,-0.30252 z m -1.5781,-0.15211 c -0.45445,-0.16301 -0.41756,-0.6037 0.0505,-0.6037 0.43824,0 0.7851,0.43628 0.48295,0.60747 -0.11152,0.0632 -0.35158,0.0615 -0.53349,-0.004 z m -1.77464,-1.11459 c -0.18073,-0.29242 0.23664,-0.60818 0.48096,-0.36387 0.25156,0.25157 0.20468,0.61017 -0.0798,0.61017 -0.13693,0 -0.31747,-0.11083 -0.40119,-0.2463 z m -1.3451,-1.09422 c -0.0959,-0.1552 -0.11087,-0.34571 -0.0332,-0.42337 0.18953,-0.18952 0.70556,0.14442 0.70556,0.45659 0,0.33813 -0.45678,0.31556 -0.67234,-0.0332 z m -1.15489,-1.40765 c -0.21641,-0.26077 -0.22764,-0.43379 -0.0358,-0.55233 0.15362,-0.0949 0.3527,0.0186 0.44241,0.25244 0.22336,0.58205 -0.0221,0.76312 -0.40657,0.29989 z m -0.92317,-1.64061 c -0.21284,-0.55464 -0.20284,-0.6383 0.0763,-0.6383 0.33075,0 0.58275,0.7469 0.30906,0.91605 -0.12392,0.0766 -0.29731,-0.0484 -0.38532,-0.27775 z m -0.68918,-1.97683 c 0,-0.29963 0.11906,-0.4712 0.26458,-0.38126 0.14552,0.0899 0.26458,0.33509 0.26458,0.54478 0,0.20969 -0.11906,0.38126 -0.26458,0.38126 -0.14552,0 -0.26458,-0.24515 -0.26458,-0.54478 z m -0.26459,-1.85209 c 0,-0.29963 0.11907,-0.47119 0.26459,-0.38126 0.14552,0.0899 0.26458,0.33509 0.26458,0.54479 0,0.20969 -0.11906,0.38126 -0.26458,0.38126 -0.14552,0 -0.26459,-0.24516 -0.26459,-0.54479 z m 0,-1.83646 c 0,-0.29105 0.11907,-0.52917 0.26459,-0.52917 0.14552,0 0.26458,0.23812 0.26458,0.52917 0,0.29104 -0.11906,0.52916 -0.26458,0.52916 -0.14552,0 -0.26459,-0.23812 -0.26459,-0.52916 z m 0.36857,-1.74144 c 0.0883,-0.23018 0.1606,-0.47533 0.1606,-0.54478 0,-0.0694 0.11386,-0.0559 0.25303,0.0301 0.30717,0.18984 0.0605,0.93318 -0.30965,0.93318 -0.14552,0 -0.19231,-0.18833 -0.10398,-0.41852 z m 0.73938,-1.71468 c 0.0637,-0.191 0.27202,-0.39936 0.46302,-0.46302 0.19843,-0.0661 0.29765,0.0331 0.23151,0.23151 -0.0637,0.19099 -0.27203,0.39935 -0.46302,0.46302 -0.19844,0.0661 -0.29766,-0.0331 -0.23151,-0.23151 z m 1.05833,-1.5875 c 0.0637,-0.191 0.27203,-0.39936 0.46302,-0.46302 0.19844,-0.0662 0.29766,0.0331 0.23151,0.23151 -0.0637,0.19099 -0.27203,0.39935 -0.46302,0.46302 -0.19844,0.0661 -0.29766,-0.0331 -0.23151,-0.23151 z m 1.16609,-1.26581 c -0.0849,-0.13734 0.0406,-0.32452 0.2789,-0.41595 0.58476,-0.2244 0.72151,-0.0365 0.25514,0.35052 -0.22639,0.18789 -0.44203,0.21431 -0.53404,0.0654 z m 1.56243,-1.36349 c 0.0899,-0.14552 0.27555,-0.26458 0.41249,-0.26458 0.13693,0 0.24896,0.11906 0.24896,0.26458 0,0.14552 -0.18562,0.26458 -0.41249,0.26458 -0.22687,0 -0.3389,-0.11906 -0.24896,-0.26458 z m 99.666654,18.7581 c 0.39857,-0.21331 0.59439,-0.21267 0.72728,0.002 0.13064,0.21138 4.12698,0.27497 14.18771,0.22576 l 14.00584,-0.0685 0.0693,-9.98802 0.0693,-9.98802 h -13.64484 c -9.02919,0 -13.58952,0.0895 -13.48132,0.26458 0.0899,0.14552 -0.0816,0.26458 -0.38126,0.26458 -0.29963,0 -0.54478,-0.11906 -0.54478,-0.26458 0,-0.14552 -0.59531,-0.26458 -1.32292,-0.26458 h -1.32291 v 9.89982 c 0,9.95841 0.0125,10.10393 0.87729,10.18762 0.1187,0.0115 0.46127,-0.11047 0.76125,-0.27101 z m 1.66161,-0.24882 c -0.086,-0.13917 -0.0996,-0.25303 -0.0301,-0.25303 0.0694,0 0.31459,-0.0723 0.54477,-0.1606 0.23019,-0.0883 0.41852,-0.0415 0.41852,0.10398 0,0.37017 -0.74334,0.61682 -0.93318,0.30965 z m 1.72693,-1.04678 c 0,-0.14552 0.18562,-0.26458 0.41249,-0.26458 0.22687,0 0.33891,0.11906 0.24897,0.26458 -0.0899,0.14552 -0.27556,0.26458 -0.41249,0.26458 -0.13693,0 -0.24897,-0.11906 -0.24897,-0.26458 z m 1.37253,-1.07487 c 0.0637,-0.191 0.27202,-0.39936 0.46302,-0.46302 0.19843,-0.0662 0.29765,0.0331 0.23151,0.23151 -0.0637,0.19099 -0.27203,0.39935 -0.46302,0.46302 -0.19844,0.0661 -0.29766,-0.0331 -0.23151,-0.23151 z m 1.2733,-1.39066 c 0,-0.49395 0.43154,-0.81691 0.64027,-0.47918 0.0812,0.1314 -0.0296,0.38605 -0.2463,0.56588 -0.32033,0.26584 -0.39397,0.24964 -0.39397,-0.0867 z m 0.98118,-1.40399 c -0.20648,-0.20647 0.078,-0.89298 0.37005,-0.89298 0.30231,0 0.30914,0.71748 0.009,0.90323 -0.12523,0.0774 -0.29562,0.0728 -0.37865,-0.0103 z m 0.60632,-2.06799 c 0,-0.20969 0.11907,-0.45484 0.26459,-0.54478 0.14552,-0.0899 0.26458,0.0816 0.26458,0.38126 0,0.29963 -0.11906,0.54478 -0.26458,0.54478 -0.14552,0 -0.26459,-0.17157 -0.26459,-0.38126 z m 0.26459,-1.85208 c 0,-0.2097 0.11906,-0.45485 0.26458,-0.54479 0.14552,-0.0899 0.26458,0.0816 0.26458,0.38126 0,0.29963 -0.11906,0.54479 -0.26458,0.54479 -0.14552,0 -0.26458,-0.17157 -0.26458,-0.38126 z m 0,-1.99999 c 0,-0.29105 0.11906,-0.52917 0.26458,-0.52917 0.14552,0 0.26458,0.23812 0.26458,0.52917 0,0.29104 -0.11906,0.52916 -0.26458,0.52916 -0.14552,0 -0.26458,-0.23812 -0.26458,-0.52916 z m -0.35702,-1.71132 c -0.082,-0.21362 -0.0352,-0.45878 0.10399,-0.54478 0.13916,-0.086 0.25303,-0.0996 0.25303,-0.0301 0,0.0694 0.0723,0.3146 0.1606,0.54478 0.0883,0.23019 0.0415,0.41852 -0.10399,0.41852 -0.14552,0 -0.33165,-0.17478 -0.41363,-0.3884 z m -0.80548,-1.88267 c -0.0989,-0.25768 -0.0398,-0.37864 0.15359,-0.31419 0.39551,0.13184 0.61328,0.73318 0.26551,0.73318 -0.14208,0 -0.33067,-0.18855 -0.4191,-0.41899 z m -0.95417,-1.59778 c 0,-0.35158 0.0718,-0.36966 0.39687,-0.0999 0.21829,0.18116 0.39688,0.37433 0.39688,0.42927 0,0.0549 -0.17859,0.0999 -0.39688,0.0999 -0.21828,0 -0.39687,-0.19318 -0.39687,-0.42927 z m -1.14653,-1.07004 c -0.32138,-0.32138 -0.18281,-0.60322 0.22049,-0.44846 0.21828,0.0838 0.39687,0.25862 0.39687,0.38857 0,0.27739 -0.3645,0.31275 -0.61736,0.0599 z m -1.4993,-1.14653 c -0.20985,-0.12969 -0.29372,-0.32364 -0.18637,-0.43099 0.10735,-0.10736 0.33409,-0.0563 0.50387,0.11349 0.39976,0.39976 0.17663,0.62289 -0.3175,0.3175 z M 37.467746,53.73297 c 2.65343,-1.33945 4.86019,-4.4213 5.34623,-7.46626 0.81998,-5.13712 -3.31363,-10.66464 -8.42825,-11.2704 l -1.34334,-0.15909 v 9.99574 9.99575 l 1.41709,-0.14626 c 0.79696,-0.0823 2.1134,-0.49775 3.00827,-0.94948 z m 41.082972,-8.93702 v -9.95873 l -1.3586,0.1609 c -1.80089,0.21329 -4.40159,1.4573 -5.644039,2.69975 -2.477063,2.47707 -3.501323,7.2268 -2.265373,10.50509 1.484985,3.93884 4.686972,6.46663 8.275822,6.53329 l 0.99219,0.0184 z m 4.87733,8.92873 c 2.79365,-1.37531 4.60509,-3.95166 5.13575,-7.30438 0.4709,-2.97521 -0.69169,-6.66826 -2.74586,-8.72243 -1.19728,-1.19728 -3.75519,-2.45002 -5.48736,-2.68744 L 79.079888,34.839 v 9.9915 9.9915 l 1.31656,-0.1265 c 0.72411,-0.0696 2.08833,-0.50645 3.0316,-0.97082 z M 124.58821,44.8328 v -9.92187 l -0.8599,0.003 c -2.7304,0.009 -5.75394,1.78812 -7.49375,4.40926 -2.43845,3.67367 -2.27382,8.29285 0.41686,11.69682 0.56134,0.71015 1.40309,1.56352 1.87056,1.89639 1.32404,0.9428 3.70418,1.82523 4.94175,1.83214 l 1.12448,0.006 z"
       id="path209" /></g></svg>
