<?xml version="1.0" encoding="UTF-8" standalone="no"?>
<!-- Created with Inkscape (http://www.inkscape.org/) -->

<svg
   width="301.70099"
   height="339.51999"
   viewBox="0 0 79.825555 89.831895"
   version="1.1"
   id="svg5"
   xml:space="preserve"
   sodipodi:docname="basketballCourt.svg"
   inkscape:version="1.2 (dc2aeda, 2022-05-15)"
   xmlns:inkscape="http://www.inkscape.org/namespaces/inkscape"
   xmlns:sodipodi="http://sodipodi.sourceforge.net/DTD/sodipodi-0.dtd"
   xmlns="http://www.w3.org/2000/svg"
   xmlns:svg="http://www.w3.org/2000/svg"><sodipodi:namedview
     id="namedview6"
     pagecolor="#ffffff"
     bordercolor="#000000"
     borderopacity="0.25"
     inkscape:showpageshadow="2"
     inkscape:pageopacity="0.0"
     inkscape:pagecheckerboard="0"
     inkscape:deskcolor="#d1d1d1"
     showgrid="false"
     inkscape:zoom="1.7706964"
     inkscape:cx="110.40854"
     inkscape:cy="182.13173"
     inkscape:window-width="1784"
     inkscape:window-height="1081"
     inkscape:window-x="8"
     inkscape:window-y="52"
     inkscape:window-maximized="0"
     inkscape:current-layer="layer1" /><defs
     id="defs2" /><g
     id="layer1"><path
       style="fill:#000000;stroke-width:0.264583"
       d="M 1.2028958,82.867097 C 0.97651579,75.37076 0.97594579,14.17168 1.2021858,6.9073085 l 0.17438,-5.5993599 77.5664022,0.078271 -0.06996,87.1694474 -77.4963172,0.0666 z M 78.418428,71.69165 V 55.42342 l -1.39408,-0.20062 c -2.88148,-0.41469 -5.417161,-1.95431 -6.916491,-4.19958 -1.441151,-2.15814 -1.959729,-4.07399 -1.822093,-6.73159 0.128363,-2.47854 1.11252,-4.91595 2.6899,-6.66192 1.213509,-1.34321 3.680484,-2.65922 5.792464,-3.08999 l 1.6503,-0.33661 0.0682,-16.18255 0.0682,-16.1825515 H 40.188166 1.8215558 v 3.41547 3.415472 l 7.6067699,0.1096 c 7.5489903,0.10878 7.6304803,0.11598 10.7282603,0.94881 12.33167,3.3153095 21.656,10.5092295 26.26755,20.2659895 3.5556,7.52268 4.11403,18.0097 1.39599,26.21653 -3.62885,10.95696 -12.93309,19.47059 -25.41275,23.253337 -4.54904,1.37888 -7.64399,1.74979 -14.6005103,1.74979 H 1.8215558 v 3.44048 3.44047 l 38.2984302,-0.067 38.298442,-0.067 z m -63.478712,8.728117 c 9.04233,-0.80053 18.60435,-5.408547 24.88152,-11.990597 4.67773,-4.90494 7.5571,-10.54962 8.71776,-17.09021 0.56025,-3.15714 0.55001,-9.50545 -0.0207,-12.84119 -2.34484,-13.70508 -12.738,-24.03648 -28.42706,-28.25809 -3.01913,-0.8123895 -3.1483,-0.8236795 -10.6629203,-0.9319595 l -7.6067699,-0.1096 V 21.79315 34.38818 l 16.3380202,-0.004 c 17.35018,-0.004 17.30739,-0.007 19.82254,1.27603 1.53313,0.78215 3.0686,2.44642 4.14243,4.48993 1.64475,3.12996 1.70605,6.1174 0.18875,9.19947 -1.66527,3.38265 -4.40689,5.38991 -8.08849,5.92197 -1.06566,0.154 -8.29274,0.26868 -17.12357,0.27171 l -15.2796802,0.005 V 68.116 80.683697 l 5.0932299,-0.002 c 2.80127,-0.001 6.4124903,-0.11906 8.0249303,-0.26181 z M 29.924136,54.71674 c 0.0753,-0.22587 0.2471,-0.22425 0.67807,0.006 0.31748,0.16991 0.87734,0.23361 1.24413,0.14155 l 0.66688,-0.16738 v -9.89319 -9.89319 h -1.4552 c -0.80037,0 -1.45521,0.11906 -1.45521,0.26458 0,0.14552 -0.24516,0.26458 -0.54479,0.26458 -0.29963,0 -0.47119,-0.11906 -0.38125,-0.26458 0.10819,-0.17507 -4.40698,-0.26458 -13.34585,-0.26458 H 1.8215558 V 44.96469 55.01886 H 15.822426 c 10.26933,0 14.02774,-0.0806 14.10171,-0.30252 z m -1.5781,-0.15211 c -0.45445,-0.16301 -0.41756,-0.6037 0.0505,-0.6037 0.43824,0 0.7851,0.43628 0.48295,0.60747 -0.11152,0.0632 -0.35158,0.0615 -0.53349,-0.004 z m -1.77464,-1.11459 c -0.18073,-0.29242 0.23664,-0.60818 0.48096,-0.36387 0.25156,0.25157 0.20468,0.61017 -0.0798,0.61017 -0.13693,0 -0.31747,-0.11083 -0.40119,-0.2463 z m -1.3451,-1.09422 c -0.0959,-0.1552 -0.11087,-0.34571 -0.0332,-0.42337 0.18953,-0.18952 0.70556,0.14442 0.70556,0.45659 0,0.33813 -0.45678,0.31556 -0.67234,-0.0332 z m -1.15489,-1.40765 c -0.21641,-0.26077 -0.22764,-0.43379 -0.0358,-0.55233 0.15362,-0.0949 0.3527,0.0186 0.44241,0.25244 0.22336,0.58205 -0.0221,0.76312 -0.40657,0.29989 z m -0.92317,-1.64061 c -0.21284,-0.55464 -0.20284,-0.6383 0.0763,-0.6383 0.33075,0 0.58275,0.7469 0.30906,0.91605 -0.12392,0.0766 -0.29731,-0.0484 -0.38532,-0.27775 z m -0.68918,-1.97683 c 0,-0.29963 0.11906,-0.4712 0.26458,-0.38126 0.14552,0.0899 0.26458,0.33509 0.26458,0.54478 0,0.20969 -0.11906,0.38126 -0.26458,0.38126 -0.14552,0 -0.26458,-0.24515 -0.26458,-0.54478 z m -0.26459,-1.85209 c 0,-0.29963 0.11907,-0.47119 0.26459,-0.38126 0.14552,0.0899 0.26458,0.33509 0.26458,0.54479 0,0.20969 -0.11906,0.38126 -0.26458,0.38126 -0.14552,0 -0.26459,-0.24516 -0.26459,-0.54479 z m 0,-1.83646 c 0,-0.29105 0.11907,-0.52917 0.26459,-0.52917 0.14552,0 0.26458,0.23812 0.26458,0.52917 0,0.29104 -0.11906,0.52916 -0.26458,0.52916 -0.14552,0 -0.26459,-0.23812 -0.26459,-0.52916 z m 1.10795,-3.45612 c 0.0637,-0.191 0.27202,-0.39936 0.46302,-0.46302 0.19843,-0.0661 0.29765,0.0331 0.23151,0.23151 -0.0637,0.19099 -0.27203,0.39935 -0.46302,0.46302 -0.19844,0.0661 -0.29766,-0.0331 -0.23151,-0.23151 z m 1.05833,-1.5875 c 0.0637,-0.191 0.27203,-0.39936 0.46302,-0.46302 0.19844,-0.0662 0.29766,0.0331 0.23151,0.23151 -0.0637,0.19099 -0.27203,0.39935 -0.46302,0.46302 -0.19844,0.0661 -0.29766,-0.0331 -0.23151,-0.23151 z m 1.16609,-1.26581 c -0.0849,-0.13734 0.0406,-0.32452 0.2789,-0.41595 0.58476,-0.2244 0.72151,-0.0365 0.25514,0.35052 -0.22639,0.18789 -0.44203,0.21431 -0.53404,0.0654 z m 1.56243,-1.36349 c 0.0899,-0.14552 0.27555,-0.26458 0.41249,-0.26458 0.13693,0 0.24896,0.11906 0.24896,0.26458 0,0.14552 -0.18562,0.26458 -0.41249,0.26458 -0.22687,0 -0.3389,-0.11906 -0.24896,-0.26458 z m 10.37848,17.76371 c 2.65343,-1.33945 4.86019,-4.4213 5.34623,-7.46626 0.81998,-5.13712 -3.31363,-10.66464 -8.42825,-11.2704 l -1.34334,-0.15909 v 9.99574 9.99575 l 1.41709,-0.14626 c 0.79696,-0.0823 2.1134,-0.49775 3.00827,-0.94948 z m 41.082972,-8.93702 v -9.95873 l -1.3586,0.1609 c -1.80089,0.21329 -4.40159,1.4573 -5.644039,2.69975 -2.477063,2.47707 -3.501323,7.2268 -2.265373,10.50509 1.484985,3.93884 4.686972,6.46663 8.275822,6.53329 l 0.99219,0.0184 z"
       id="path209"
       sodipodi:nodetypes="scccccsccssssscccccccccsssscccccccsscsccccccssscccccccccscccssscscccscccscccccsccsssssccccccscccscsssscssssssssccccccccccccccccssscsccccccsccsssccc" /><path
       d="m 22.437557,41.907192 c -0.02278,-0.20005 0.07826,-0.47682 0.22461,-0.61508 0.152056,-0.143606 0.283852,-0.09549 0.30754,0.112306 0.02277,0.200041 -0.07828,0.476815 -0.224611,0.61508 -0.152064,0.14361 -0.283861,0.0955 -0.307539,-0.112306 z"
       style="fill:#000000;stroke-width:0.264583"
       id="path270" /><circle
       style="fill:#73cce5;fill-opacity:0;stroke:#000000;stroke-width:0.48207386;stroke-dasharray:none"
       id="path337"
       r="1.2582366"
       cy="44.845737"
       cx="5.8836703" /></g></svg>
